# xmcd
#
# Track frame offsets: 
#        150
#        10473
#        20720
#        33063
#        43890
#        54428
#        65766
#        83366
#        101624
#        114791
#        139820
#        153631
#        166457
#
# Disc length: 2517 seconds
#
# Revision: 0
# Processed by: cddbd v1.5.2PL0 Copyright (c) Steve Scherf et al.
# Submitted via: ExactAudioCopy v0.99pb4
#
DISCID=a409d30d
DTITLE=Jounny Cash - JohnniCash American Records I
DYEAR=1994
DGENRE=Country
TTITLE0=01. Delia's Gone
TTITLE1=02. Let The Train Blow The Whistle
TTITLE2=03. The Beast In Me
TTITLE3=04. Drive On
TTITLE4=05. Why Me Lord
TTITLE5=06. Thirteen
TTITLE6=07. Oh, Bury Me Not (Introduction_ A Cowboy's Prayer)
TTITLE7=08. Bird On A Wire
TTITLE8=09. Tennessee Stud
TTITLE9=10. Down There By The Train
TTITLE10=11. Redemption
TTITLE11=12. Like A Soldier
TTITLE12=13. The Man Who Couldn't Cry
EXTD=
EXTT0=
EXTT1=
EXTT2=
EXTT3=
EXTT4=
EXTT5=
EXTT6=
EXTT7=
EXTT8=
EXTT9=
EXTT10=
EXTT11=
EXTT12=
PLAYORDER=
